<svg xmlns="http://www.w3.org/2000/svg" xmlns:xlink="http://www.w3.org/1999/xlink" width="1080" zoomAndPan="magnify" viewBox="0 0 810 809.999993" height="1080" preserveAspectRatio="xMidYMid meet" version="1.0"><defs><g/><clipPath id="9468eea080"><path d="M 0 0 L 267.75 0 L 267.75 267.761719 L 0 267.761719 Z M 0 0 " clip-rule="nonzero"/></clipPath><clipPath id="c7d75a85b9"><path d="M 0 271.128906 L 267.75 271.128906 L 267.75 539.644531 L 0 539.644531 Z M 0 271.128906 " clip-rule="nonzero"/></clipPath><clipPath id="3b81c60c8e"><path d="M 0 542.253906 L 267.75 542.253906 L 267.75 810 L 0 810 Z M 0 542.253906 " clip-rule="nonzero"/></clipPath><clipPath id="b9b0865d6c"><path d="M 541.480469 542.253906 L 810 542.253906 L 810 810 L 541.480469 810 Z M 541.480469 542.253906 " clip-rule="nonzero"/></clipPath><clipPath id="547ba0bdd5"><path d="M 270.355469 271.128906 L 538.875 271.128906 L 538.875 539.644531 L 270.355469 539.644531 Z M 270.355469 271.128906 " clip-rule="nonzero"/></clipPath><clipPath id="249bba685d"><path d="M 541.480469 0 L 810 0 L 810 267.746094 L 541.480469 267.746094 Z M 541.480469 0 " clip-rule="nonzero"/></clipPath><clipPath id="b1d63aac2f"><path d="M 541.480469 270.75 L 810 270.75 L 810 539.265625 L 541.480469 539.265625 Z M 541.480469 270.75 " clip-rule="nonzero"/></clipPath><clipPath id="4b59d31fc1"><path d="M 270.355469 0 L 538.875 0 L 538.875 267.761719 L 270.355469 267.761719 Z M 270.355469 0 " clip-rule="nonzero"/></clipPath><clipPath id="29d87d2ac8"><path d="M 270.742188 542.644531 L 539.257812 542.644531 L 539.257812 810 L 270.742188 810 Z M 270.742188 542.644531 " clip-rule="nonzero"/></clipPath></defs><g clip-path="url(#9468eea080)"><path fill="#ffffff" d="M -0.769531 -0.753906 L 267.75 -0.753906 L 267.75 267.761719 L -0.769531 267.761719 Z M -0.769531 -0.753906 " fill-opacity="1" fill-rule="nonzero"/></g><g clip-path="url(#c7d75a85b9)"><path fill="#6e2e13" d="M -0.769531 271.128906 L 267.75 271.128906 L 267.75 539.644531 L -0.769531 539.644531 Z M -0.769531 271.128906 " fill-opacity="1" fill-rule="nonzero"/></g><g clip-path="url(#3b81c60c8e)"><path fill="#111111" d="M -0.769531 542.253906 L 267.75 542.253906 L 267.75 810.769531 L -0.769531 810.769531 Z M -0.769531 542.253906 " fill-opacity="1" fill-rule="nonzero"/></g><g clip-path="url(#b9b0865d6c)"><path fill="#eee7d3" d="M 541.480469 542.253906 L 810 542.253906 L 810 810.769531 L 541.480469 810.769531 Z M 541.480469 542.253906 " fill-opacity="1" fill-rule="nonzero"/></g><g clip-path="url(#547ba0bdd5)"><path fill="#a46838" d="M 270.355469 271.128906 L 538.875 271.128906 L 538.875 539.644531 L 270.355469 539.644531 Z M 270.355469 271.128906 " fill-opacity="1" fill-rule="nonzero"/></g><g clip-path="url(#249bba685d)"><path fill="#fac857" d="M 541.480469 -0.769531 L 810 -0.769531 L 810 267.746094 L 541.480469 267.746094 Z M 541.480469 -0.769531 " fill-opacity="1" fill-rule="nonzero"/></g><g clip-path="url(#b1d63aac2f)"><path fill="#ffa100" d="M 541.480469 270.75 L 810 270.75 L 810 539.265625 L 541.480469 539.265625 Z M 541.480469 270.75 " fill-opacity="1" fill-rule="nonzero"/></g><g clip-path="url(#4b59d31fc1)"><path fill="#fde49c" d="M 270.355469 -0.753906 L 538.875 -0.753906 L 538.875 267.761719 L 270.355469 267.761719 Z M 270.355469 -0.753906 " fill-opacity="1" fill-rule="nonzero"/></g><g clip-path="url(#29d87d2ac8)"><path fill="#f2f2f2" d="M 270.742188 542.644531 L 539.257812 542.644531 L 539.257812 811.160156 L 270.742188 811.160156 Z M 270.742188 542.644531 " fill-opacity="1" fill-rule="nonzero"/></g><g fill="#000000" fill-opacity="1"><g transform="translate(34.855585, 147.082409)"><g><path d="M 13.28125 -20.882812 L 21.585938 -20.882812 L 18.710938 -12.324219 L 10.410156 -12.324219 Z M 3.894531 0.445312 L 6.128906 0.445312 L 9.644531 -10.089844 L 17.945312 -10.089844 L 14.625 -0.0625 L 16.859375 -0.0625 L 20.179688 -10.089844 L 28.863281 -10.089844 L 28.863281 -12.324219 L 20.945312 -12.324219 L 23.820312 -20.882812 L 30.972656 -20.882812 L 30.972656 -23.117188 L 24.585938 -23.117188 L 28.097656 -33.589844 L 25.863281 -33.589844 L 22.351562 -23.117188 L 13.984375 -23.117188 L 17.304688 -33.078125 L 15.070312 -33.078125 L 11.75 -23.117188 L 3.640625 -23.117188 L 3.640625 -20.882812 L 10.984375 -20.882812 L 8.109375 -12.324219 L 1.53125 -12.324219 L 1.53125 -10.089844 L 7.40625 -10.089844 Z M 3.894531 0.445312 "/></g></g></g><g fill="#000000" fill-opacity="1"><g transform="translate(71.639392, 147.082409)"><g><path d="M 21.585938 -44.191406 L 21.585938 -46.492188 L 2.746094 -46.492188 C 2.105469 -46.492188 1.597656 -45.980469 1.597656 -45.339844 L 1.53125 0 L 3.832031 0 L 3.832031 -7.152344 C 3.832031 -11.496094 3.832031 -17.113281 3.832031 -22.796875 L 16.605469 -22.796875 L 16.605469 -25.035156 L 3.894531 -25.035156 L 3.894531 -44.191406 L 7.472656 -44.191406 C 9.261719 -44.191406 11.367188 -44.191406 13.476562 -44.191406 Z M 21.585938 -44.191406 "/></g></g></g><g fill="#000000" fill-opacity="1"><g transform="translate(99.099519, 147.082409)"><g><path d="M 21.585938 -44.191406 L 21.585938 -46.492188 L 2.746094 -46.492188 C 2.105469 -46.492188 1.597656 -45.980469 1.597656 -45.339844 L 1.53125 0 L 3.832031 0 L 3.832031 -7.152344 C 3.832031 -11.496094 3.832031 -17.113281 3.832031 -22.796875 L 16.605469 -22.796875 L 16.605469 -25.035156 L 3.894531 -25.035156 L 3.894531 -44.191406 L 7.472656 -44.191406 C 9.261719 -44.191406 11.367188 -44.191406 13.476562 -44.191406 Z M 21.585938 -44.191406 "/></g></g></g><g fill="#000000" fill-opacity="1"><g transform="translate(126.55964, 147.082409)"><g><path d="M 21.585938 -44.191406 L 21.585938 -46.492188 L 2.746094 -46.492188 C 2.105469 -46.492188 1.597656 -45.980469 1.597656 -45.339844 L 1.53125 0 L 3.832031 0 L 3.832031 -7.152344 C 3.832031 -11.496094 3.832031 -17.113281 3.832031 -22.796875 L 16.605469 -22.796875 L 16.605469 -25.035156 L 3.894531 -25.035156 L 3.894531 -44.191406 L 7.472656 -44.191406 C 9.261719 -44.191406 11.367188 -44.191406 13.476562 -44.191406 Z M 21.585938 -44.191406 "/></g></g></g><g fill="#000000" fill-opacity="1"><g transform="translate(154.019761, 147.082409)"><g><path d="M 21.585938 -44.191406 L 21.585938 -46.492188 L 2.746094 -46.492188 C 2.105469 -46.492188 1.597656 -45.980469 1.597656 -45.339844 L 1.53125 0 L 3.832031 0 L 3.832031 -7.152344 C 3.832031 -11.496094 3.832031 -17.113281 3.832031 -22.796875 L 16.605469 -22.796875 L 16.605469 -25.035156 L 3.894531 -25.035156 L 3.894531 -44.191406 L 7.472656 -44.191406 C 9.261719 -44.191406 11.367188 -44.191406 13.476562 -44.191406 Z M 21.585938 -44.191406 "/></g></g></g><g fill="#000000" fill-opacity="1"><g transform="translate(181.479882, 147.082409)"><g><path d="M 21.585938 -44.191406 L 21.585938 -46.492188 L 2.746094 -46.492188 C 2.105469 -46.492188 1.597656 -45.980469 1.597656 -45.339844 L 1.53125 0 L 3.832031 0 L 3.832031 -7.152344 C 3.832031 -11.496094 3.832031 -17.113281 3.832031 -22.796875 L 16.605469 -22.796875 L 16.605469 -25.035156 L 3.894531 -25.035156 L 3.894531 -44.191406 L 7.472656 -44.191406 C 9.261719 -44.191406 11.367188 -44.191406 13.476562 -44.191406 Z M 21.585938 -44.191406 "/></g></g></g><g fill="#000000" fill-opacity="1"><g transform="translate(208.940004, 147.082409)"><g><path d="M 21.585938 -44.191406 L 21.585938 -46.492188 L 2.746094 -46.492188 C 2.105469 -46.492188 1.597656 -45.980469 1.597656 -45.339844 L 1.53125 0 L 3.832031 0 L 3.832031 -7.152344 C 3.832031 -11.496094 3.832031 -17.113281 3.832031 -22.796875 L 16.605469 -22.796875 L 16.605469 -25.035156 L 3.894531 -25.035156 L 3.894531 -44.191406 L 7.472656 -44.191406 C 9.261719 -44.191406 11.367188 -44.191406 13.476562 -44.191406 Z M 21.585938 -44.191406 "/></g></g></g><g fill="#000000" fill-opacity="1"><g transform="translate(290.525439, 147.082409)"><g><path d="M 13.28125 -20.882812 L 21.585938 -20.882812 L 18.710938 -12.324219 L 10.410156 -12.324219 Z M 3.894531 0.445312 L 6.128906 0.445312 L 9.644531 -10.089844 L 17.945312 -10.089844 L 14.625 -0.0625 L 16.859375 -0.0625 L 20.179688 -10.089844 L 28.863281 -10.089844 L 28.863281 -12.324219 L 20.945312 -12.324219 L 23.820312 -20.882812 L 30.972656 -20.882812 L 30.972656 -23.117188 L 24.585938 -23.117188 L 28.097656 -33.589844 L 25.863281 -33.589844 L 22.351562 -23.117188 L 13.984375 -23.117188 L 17.304688 -33.078125 L 15.070312 -33.078125 L 11.75 -23.117188 L 3.640625 -23.117188 L 3.640625 -20.882812 L 10.984375 -20.882812 L 8.109375 -12.324219 L 1.53125 -12.324219 L 1.53125 -10.089844 L 7.40625 -10.089844 Z M 3.894531 0.445312 "/></g></g></g><g fill="#000000" fill-opacity="1"><g transform="translate(327.309246, 147.082409)"><g><path d="M 21.585938 -44.191406 L 21.585938 -46.492188 L 2.746094 -46.492188 C 2.105469 -46.492188 1.597656 -45.980469 1.597656 -45.339844 L 1.53125 0 L 3.832031 0 L 3.832031 -7.152344 C 3.832031 -11.496094 3.832031 -17.113281 3.832031 -22.796875 L 16.605469 -22.796875 L 16.605469 -25.035156 L 3.894531 -25.035156 L 3.894531 -44.191406 L 7.472656 -44.191406 C 9.261719 -44.191406 11.367188 -44.191406 13.476562 -44.191406 Z M 21.585938 -44.191406 "/></g></g></g><g fill="#000000" fill-opacity="1"><g transform="translate(354.769373, 147.082409)"><g><path d="M 14.367188 0 C 18.902344 0 23.054688 -2.363281 26.183594 -6.898438 C 29.25 -11.367188 30.910156 -16.988281 30.910156 -23.246094 C 30.910156 -29.441406 29.25 -35.058594 26.183594 -39.53125 C 23.054688 -44.0625 18.902344 -46.554688 14.367188 -46.554688 L 2.746094 -46.554688 C 2.171875 -46.554688 1.660156 -46.042969 1.660156 -45.40625 L 1.53125 -1.148438 C 1.53125 -0.832031 1.660156 -0.574219 1.914062 -0.320312 C 2.105469 -0.0625 2.425781 0 2.746094 0 Z M 5.9375 -44.253906 C 6.769531 -44.253906 7.726562 -44.253906 8.558594 -44.253906 L 14.433594 -44.253906 C 18.390625 -44.253906 21.96875 -41.957031 24.523438 -38.125 C 27.140625 -34.292969 28.738281 -29.121094 28.738281 -23.246094 C 28.738281 -17.433594 27.140625 -12.199219 24.523438 -8.429688 C 21.96875 -4.597656 18.390625 -2.234375 14.433594 -2.234375 L 3.894531 -2.234375 L 3.894531 -9.386719 C 3.894531 -13.28125 3.960938 -18.328125 3.960938 -23.308594 C 3.960938 -28.355469 3.960938 -33.269531 3.960938 -37.230469 L 3.960938 -44.320312 L 5.9375 -44.320312 Z M 5.9375 -44.253906 "/></g></g></g><g fill="#000000" fill-opacity="1"><g transform="translate(391.489319, 147.082409)"><g><path d="M 3.832031 -2.234375 L 3.832031 -5.9375 C 3.832031 -7.917969 3.832031 -10.472656 3.832031 -13.410156 L 3.832031 -22.988281 L 16.605469 -22.988281 L 16.605469 -25.226562 L 3.832031 -25.226562 C 3.832031 -29.886719 3.894531 -34.421875 3.894531 -37.933594 L 3.894531 -44.320312 L 7.472656 -44.320312 C 9.261719 -44.253906 11.367188 -44.253906 13.476562 -44.253906 L 21.585938 -44.253906 L 21.585938 -46.554688 L 2.746094 -46.554688 C 2.105469 -46.554688 1.597656 -46.042969 1.597656 -45.40625 L 1.53125 -1.148438 C 1.53125 -0.894531 1.660156 -0.574219 1.914062 -0.320312 C 2.105469 -0.128906 2.425781 0 2.746094 0 L 21.96875 0 L 21.96875 -2.234375 Z M 3.832031 -2.234375 "/></g></g></g><g fill="#000000" fill-opacity="1"><g transform="translate(419.204885, 147.082409)"><g><path d="M 21.136719 -42.59375 L 1.722656 -10.855469 C 1.53125 -10.472656 1.46875 -10.089844 1.722656 -9.707031 C 1.980469 -9.324219 2.300781 -9.132812 2.683594 -9.132812 L 21.011719 -9.132812 L 21.011719 0 L 23.179688 0 L 23.179688 -9.132812 L 28.863281 -9.132812 L 28.863281 -11.367188 L 23.179688 -11.367188 L 23.179688 -42.019531 C 23.179688 -42.53125 22.863281 -42.976562 22.414062 -43.105469 C 21.902344 -43.234375 21.394531 -43.042969 21.136719 -42.59375 Z M 21.011719 -38.0625 L 21.011719 -11.367188 L 4.660156 -11.367188 C 5.109375 -12.003906 6.066406 -13.667969 7.40625 -15.902344 C 8.75 -18.136719 10.472656 -20.882812 12.199219 -23.757812 C 13.921875 -26.566406 15.710938 -29.441406 17.304688 -31.996094 C 18.839844 -34.613281 20.117188 -36.71875 20.945312 -37.933594 Z M 21.011719 -38.0625 "/></g></g></g><g fill="#000000" fill-opacity="1"><g transform="translate(453.881292, 147.082409)"><g><path d="M 24.84375 -38.636719 C 22.351562 -41.316406 18.964844 -42.976562 15.199219 -42.976562 C 11.429688 -42.976562 7.984375 -41.316406 5.554688 -38.636719 C 3.066406 -35.890625 1.53125 -32.25 1.53125 -28.164062 C 1.53125 -24.203125 2.875 -20.945312 5.554688 -18.582031 C 8.046875 -16.347656 11.367188 -15.199219 15.199219 -15.199219 C 18.964844 -15.199219 22.289062 -16.347656 24.777344 -18.582031 C 25.226562 -19.03125 25.671875 -19.542969 26.054688 -19.988281 C 25.992188 -19.542969 25.863281 -18.964844 25.734375 -18.265625 C 25.480469 -16.414062 24.777344 -14.558594 23.820312 -12.707031 C 22.734375 -10.855469 21.394531 -9.132812 19.796875 -7.597656 C 18.519531 -6.386719 16.796875 -5.046875 14.558594 -3.960938 C 12.324219 -2.875 9.707031 -2.105469 6.578125 -2.105469 L 6.578125 0 C 10.089844 0 12.964844 -0.765625 15.453125 -1.980469 C 17.882812 -3.066406 19.796875 -4.535156 21.265625 -5.9375 C 23.054688 -7.597656 24.585938 -9.578125 25.734375 -11.621094 C 26.886719 -13.667969 27.585938 -15.835938 27.90625 -17.882812 C 28.164062 -19.988281 28.355469 -21.136719 28.480469 -22.03125 C 28.546875 -22.925781 28.609375 -23.5 28.609375 -24.457031 L 28.546875 -25.863281 C 28.671875 -26.628906 28.738281 -27.394531 28.738281 -28.164062 C 28.738281 -32.25 27.203125 -35.890625 24.777344 -38.636719 Z M 7.214844 -19.925781 C 5.046875 -21.710938 3.640625 -24.457031 3.640625 -28.226562 C 3.640625 -31.738281 4.917969 -34.867188 7.023438 -37.230469 C 9.132812 -39.53125 11.941406 -40.933594 15.136719 -40.933594 C 18.328125 -40.933594 21.136719 -39.53125 23.246094 -37.230469 C 25.289062 -34.867188 26.628906 -31.738281 26.628906 -28.226562 C 26.628906 -24.457031 25.160156 -21.710938 22.988281 -19.925781 C 20.820312 -18.074219 18.007812 -17.304688 15.136719 -17.304688 C 12.261719 -17.304688 9.386719 -18.074219 7.214844 -19.925781 Z M 7.214844 -19.925781 "/></g></g></g><g fill="#000000" fill-opacity="1"><g transform="translate(488.557698, 147.082409)"><g><path d="M 1.53125 -23.246094 C 1.53125 -17.050781 3.191406 -11.429688 6.195312 -6.960938 C 9.324219 -2.425781 13.347656 0 17.816406 0 C 21.839844 0 25.542969 -1.980469 28.546875 -5.746094 L 26.820312 -7.152344 C 24.265625 -3.960938 21.136719 -2.234375 17.816406 -2.234375 C 14.113281 -2.234375 10.664062 -4.277344 7.984375 -8.175781 C 5.300781 -12.261719 3.769531 -17.496094 3.769531 -23.246094 C 3.769531 -29.058594 5.300781 -34.292969 7.984375 -38.316406 C 10.664062 -42.277344 14.113281 -44.320312 17.816406 -44.320312 C 21.136719 -44.320312 24.265625 -42.59375 26.820312 -39.402344 L 28.546875 -40.742188 C 25.542969 -44.511719 21.839844 -46.554688 17.816406 -46.554688 C 13.347656 -46.554688 9.324219 -44.0625 6.195312 -39.53125 C 3.191406 -35.125 1.53125 -29.503906 1.53125 -23.246094 Z M 1.53125 -23.246094 "/></g></g></g><g fill="#000000" fill-opacity="1"><g transform="translate(558.553799, 147.082409)"><g><path d="M 13.28125 -20.882812 L 21.585938 -20.882812 L 18.710938 -12.324219 L 10.410156 -12.324219 Z M 3.894531 0.445312 L 6.128906 0.445312 L 9.644531 -10.089844 L 17.945312 -10.089844 L 14.625 -0.0625 L 16.859375 -0.0625 L 20.179688 -10.089844 L 28.863281 -10.089844 L 28.863281 -12.324219 L 20.945312 -12.324219 L 23.820312 -20.882812 L 30.972656 -20.882812 L 30.972656 -23.117188 L 24.585938 -23.117188 L 28.097656 -33.589844 L 25.863281 -33.589844 L 22.351562 -23.117188 L 13.984375 -23.117188 L 17.304688 -33.078125 L 15.070312 -33.078125 L 11.75 -23.117188 L 3.640625 -23.117188 L 3.640625 -20.882812 L 10.984375 -20.882812 L 8.109375 -12.324219 L 1.53125 -12.324219 L 1.53125 -10.089844 L 7.40625 -10.089844 Z M 3.894531 0.445312 "/></g></g></g><g fill="#000000" fill-opacity="1"><g transform="translate(595.337606, 147.082409)"><g><path d="M 21.585938 -44.191406 L 21.585938 -46.492188 L 2.746094 -46.492188 C 2.105469 -46.492188 1.597656 -45.980469 1.597656 -45.339844 L 1.53125 0 L 3.832031 0 L 3.832031 -7.152344 C 3.832031 -11.496094 3.832031 -17.113281 3.832031 -22.796875 L 16.605469 -22.796875 L 16.605469 -25.035156 L 3.894531 -25.035156 L 3.894531 -44.191406 L 7.472656 -44.191406 C 9.261719 -44.191406 11.367188 -44.191406 13.476562 -44.191406 Z M 21.585938 -44.191406 "/></g></g></g><g fill="#000000" fill-opacity="1"><g transform="translate(622.797733, 147.082409)"><g><path d="M 30.652344 0 L 33.015625 -0.0625 L 18.648438 -45.789062 C 18.519531 -46.234375 18.074219 -46.554688 17.5625 -46.554688 L 16.988281 -46.554688 C 16.476562 -46.554688 16.027344 -46.234375 15.902344 -45.789062 L 1.53125 -0.0625 L 3.894531 0 C 4.277344 -1.339844 4.726562 -2.683594 5.238281 -4.152344 C 6.066406 -6.769531 7.152344 -10.28125 8.367188 -14.242188 L 26.183594 -14.242188 C 27.394531 -10.28125 28.480469 -6.769531 29.3125 -4.152344 C 29.824219 -2.683594 30.269531 -1.339844 30.652344 0 Z M 9.132812 -16.539062 C 10.21875 -20.179688 11.429688 -24.011719 12.582031 -27.652344 C 13.667969 -31.226562 14.75 -34.613281 15.582031 -37.230469 C 16.414062 -39.914062 17.050781 -41.828125 17.304688 -42.660156 C 17.496094 -41.828125 18.136719 -39.914062 18.964844 -37.230469 C 19.796875 -34.613281 20.882812 -31.226562 21.96875 -27.652344 C 23.117188 -24.011719 24.332031 -20.179688 25.417969 -16.539062 Z M 9.132812 -16.539062 "/></g></g></g><g fill="#000000" fill-opacity="1"><g transform="translate(661.625084, 147.082409)"><g><path d="M 1.53125 -23.246094 C 1.53125 -17.050781 3.191406 -11.429688 6.195312 -6.960938 C 9.324219 -2.425781 13.347656 0 17.816406 0 C 21.839844 0 25.542969 -1.980469 28.546875 -5.746094 L 26.820312 -7.152344 C 24.265625 -3.960938 21.136719 -2.234375 17.816406 -2.234375 C 14.113281 -2.234375 10.664062 -4.277344 7.984375 -8.175781 C 5.300781 -12.261719 3.769531 -17.496094 3.769531 -23.246094 C 3.769531 -29.058594 5.300781 -34.292969 7.984375 -38.316406 C 10.664062 -42.277344 14.113281 -44.320312 17.816406 -44.320312 C 21.136719 -44.320312 24.265625 -42.59375 26.820312 -39.402344 L 28.546875 -40.742188 C 25.542969 -44.511719 21.839844 -46.554688 17.816406 -46.554688 C 13.347656 -46.554688 9.324219 -44.0625 6.195312 -39.53125 C 3.191406 -35.125 1.53125 -29.503906 1.53125 -23.246094 Z M 1.53125 -23.246094 "/></g></g></g><g fill="#000000" fill-opacity="1"><g transform="translate(696.046046, 147.082409)"><g><path d="M 26.183594 -25.417969 C 27.652344 -27.203125 28.480469 -29.3125 28.480469 -31.675781 C 28.480469 -34.804688 27.011719 -37.613281 24.585938 -39.722656 C 22.097656 -41.765625 18.710938 -43.042969 15.007812 -43.042969 C 11.304688 -43.042969 7.984375 -41.765625 5.492188 -39.722656 C 3.066406 -37.613281 1.53125 -34.804688 1.53125 -31.675781 C 1.53125 -29.3125 2.425781 -27.203125 3.894531 -25.417969 C 5.300781 -23.566406 7.40625 -22.160156 9.835938 -21.265625 C 7.40625 -20.433594 5.300781 -19.03125 3.894531 -17.304688 C 2.425781 -15.519531 1.53125 -13.347656 1.53125 -11.046875 C 1.53125 -7.984375 3.066406 -5.171875 5.492188 -3.191406 C 7.984375 -1.214844 11.304688 0.0625 15.007812 0.0625 C 18.710938 0.0625 22.097656 -1.214844 24.585938 -3.191406 C 27.011719 -5.171875 28.480469 -7.984375 28.480469 -11.046875 C 28.480469 -13.347656 27.652344 -15.519531 26.183594 -17.304688 C 24.714844 -19.03125 22.671875 -20.433594 20.242188 -21.265625 C 22.671875 -22.160156 24.714844 -23.566406 26.183594 -25.417969 Z M 6.832031 -38.378906 C 8.941406 -40.039062 11.8125 -41.125 15.007812 -41.125 C 18.265625 -41.125 21.074219 -40.039062 23.179688 -38.378906 C 25.289062 -36.65625 26.566406 -34.292969 26.566406 -31.675781 C 26.566406 -29.121094 25.289062 -26.757812 23.179688 -25.035156 C 21.074219 -23.308594 18.265625 -22.289062 15.007812 -22.289062 C 11.8125 -22.289062 8.941406 -23.308594 6.832031 -25.035156 C 4.726562 -26.757812 3.382812 -29.121094 3.382812 -31.675781 C 3.382812 -34.292969 4.726562 -36.65625 6.832031 -38.378906 Z M 6.832031 -4.535156 C 4.726562 -6.257812 3.382812 -8.492188 3.382812 -11.113281 C 3.382812 -13.667969 4.726562 -15.964844 6.832031 -17.625 C 8.941406 -19.351562 11.8125 -20.371094 15.007812 -20.371094 C 18.265625 -20.371094 21.074219 -19.351562 23.179688 -17.625 C 25.289062 -15.964844 26.628906 -13.667969 26.628906 -11.113281 C 26.628906 -8.492188 25.289062 -6.257812 23.179688 -4.535156 C 21.074219 -2.875 18.265625 -1.851562 15.007812 -1.851562 C 11.8125 -1.851562 8.941406 -2.875 6.832031 -4.535156 Z M 6.832031 -4.535156 "/></g></g></g><g fill="#000000" fill-opacity="1"><g transform="translate(730.403141, 147.082409)"><g><path d="M 3.511719 -43.425781 C 3.257812 -43.425781 2.9375 -43.363281 2.683594 -43.105469 C 2.492188 -42.851562 2.425781 -42.59375 2.425781 -42.402344 L 2.554688 -30.078125 C 2.554688 -29.757812 2.683594 -29.441406 2.9375 -29.25 C 3.191406 -28.992188 3.511719 -28.929688 3.832031 -28.929688 C 3.832031 -28.929688 5.109375 -29.25 7.089844 -29.441406 C 9.003906 -29.632812 11.621094 -29.824219 14.304688 -29.503906 C 15.070312 -29.375 16.285156 -29.25 17.625 -28.738281 C 18.964844 -28.226562 20.433594 -27.523438 21.777344 -26.3125 C 24.457031 -23.949219 25.800781 -20.628906 25.800781 -16.21875 C 25.800781 -15.070312 25.609375 -13.667969 25.289062 -12.132812 C 24.90625 -10.601562 24.332031 -8.875 23.4375 -7.40625 C 21.328125 -3.832031 18.265625 -2.042969 14.050781 -2.042969 C 12.199219 -2.042969 10.089844 -2.363281 8.109375 -3.257812 C 6.195312 -4.085938 4.535156 -5.429688 3.640625 -7.40625 L 1.660156 -6.515625 C 2.808594 -4.023438 4.660156 -2.425781 6.898438 -1.339844 C 9.195312 -0.253906 11.6875 0.128906 13.921875 0.128906 C 18.839844 0.128906 22.605469 -2.042969 25.097656 -6.320312 C 26.117188 -7.984375 26.695312 -9.769531 27.078125 -11.496094 C 27.523438 -13.21875 27.714844 -14.878906 27.714844 -16.21875 C 27.714844 -21.265625 26.117188 -25.160156 22.925781 -27.90625 C 21.394531 -29.3125 19.734375 -30.140625 18.136719 -30.71875 C 16.605469 -31.292969 15.199219 -31.546875 14.304688 -31.675781 C 12.261719 -31.929688 10.28125 -31.929688 8.558594 -31.800781 C 6.832031 -31.675781 5.429688 -31.484375 4.46875 -31.355469 C 4.46875 -32.25 4.40625 -34.292969 4.40625 -36.402344 C 4.40625 -38.445312 4.40625 -40.488281 4.40625 -41.316406 L 25.480469 -41.316406 L 25.480469 -43.425781 Z M 3.511719 -43.425781 "/></g></g></g><g fill="#000000" fill-opacity="1"><g transform="translate(764.057767, 147.082409)"><g><path d="M 1.53125 -41.957031 L 1.53125 -39.976562 L 24.714844 -39.976562 C 24.457031 -39.53125 23.757812 -38.125 22.605469 -36.015625 C 21.519531 -33.972656 20.117188 -31.355469 18.582031 -28.417969 C 16.988281 -25.417969 15.328125 -22.160156 13.601562 -18.964844 C 10.664062 -13.28125 7.28125 -7.023438 3.578125 0 L 5.300781 0.894531 L 27.078125 -40.550781 C 27.269531 -40.871094 27.203125 -41.253906 27.011719 -41.507812 C 26.820312 -41.828125 26.628906 -41.957031 26.246094 -41.957031 Z M 1.53125 -41.957031 "/></g></g></g><g fill="#ffffff" fill-opacity="1"><g transform="translate(282.768037, 418.96935)"><g><path d="M 13.28125 -20.882812 L 21.585938 -20.882812 L 18.710938 -12.324219 L 10.410156 -12.324219 Z M 3.894531 0.445312 L 6.128906 0.445312 L 9.644531 -10.089844 L 17.945312 -10.089844 L 14.625 -0.0625 L 16.859375 -0.0625 L 20.179688 -10.089844 L 28.863281 -10.089844 L 28.863281 -12.324219 L 20.945312 -12.324219 L 23.820312 -20.882812 L 30.972656 -20.882812 L 30.972656 -23.117188 L 24.585938 -23.117188 L 28.097656 -33.589844 L 25.863281 -33.589844 L 22.351562 -23.117188 L 13.984375 -23.117188 L 17.304688 -33.078125 L 15.070312 -33.078125 L 11.75 -23.117188 L 3.640625 -23.117188 L 3.640625 -20.882812 L 10.984375 -20.882812 L 8.109375 -12.324219 L 1.53125 -12.324219 L 1.53125 -10.089844 L 7.40625 -10.089844 Z M 3.894531 0.445312 "/></g></g></g><g fill="#ffffff" fill-opacity="1"><g transform="translate(319.551844, 418.96935)"><g><path d="M 30.652344 0 L 33.015625 -0.0625 L 18.648438 -45.789062 C 18.519531 -46.234375 18.074219 -46.554688 17.5625 -46.554688 L 16.988281 -46.554688 C 16.476562 -46.554688 16.027344 -46.234375 15.902344 -45.789062 L 1.53125 -0.0625 L 3.894531 0 C 4.277344 -1.339844 4.726562 -2.683594 5.238281 -4.152344 C 6.066406 -6.769531 7.152344 -10.28125 8.367188 -14.242188 L 26.183594 -14.242188 C 27.394531 -10.28125 28.480469 -6.769531 29.3125 -4.152344 C 29.824219 -2.683594 30.269531 -1.339844 30.652344 0 Z M 9.132812 -16.539062 C 10.21875 -20.179688 11.429688 -24.011719 12.582031 -27.652344 C 13.667969 -31.226562 14.75 -34.613281 15.582031 -37.230469 C 16.414062 -39.914062 17.050781 -41.828125 17.304688 -42.660156 C 17.496094 -41.828125 18.136719 -39.914062 18.964844 -37.230469 C 19.796875 -34.613281 20.882812 -31.226562 21.96875 -27.652344 C 23.117188 -24.011719 24.332031 -20.179688 25.417969 -16.539062 Z M 9.132812 -16.539062 "/></g></g></g><g fill="#ffffff" fill-opacity="1"><g transform="translate(358.37919, 418.96935)"><g><path d="M 21.136719 -42.59375 L 1.722656 -10.855469 C 1.53125 -10.472656 1.46875 -10.089844 1.722656 -9.707031 C 1.980469 -9.324219 2.300781 -9.132812 2.683594 -9.132812 L 21.011719 -9.132812 L 21.011719 0 L 23.179688 0 L 23.179688 -9.132812 L 28.863281 -9.132812 L 28.863281 -11.367188 L 23.179688 -11.367188 L 23.179688 -42.019531 C 23.179688 -42.53125 22.863281 -42.976562 22.414062 -43.105469 C 21.902344 -43.234375 21.394531 -43.042969 21.136719 -42.59375 Z M 21.011719 -38.0625 L 21.011719 -11.367188 L 4.660156 -11.367188 C 5.109375 -12.003906 6.066406 -13.667969 7.40625 -15.902344 C 8.75 -18.136719 10.472656 -20.882812 12.199219 -23.757812 C 13.921875 -26.566406 15.710938 -29.441406 17.304688 -31.996094 C 18.839844 -34.613281 20.117188 -36.71875 20.945312 -37.933594 Z M 21.011719 -38.0625 "/></g></g></g><g fill="#ffffff" fill-opacity="1"><g transform="translate(393.055586, 418.96935)"><g><path d="M 5.554688 -4.34375 C 7.984375 -1.660156 11.429688 0 15.199219 0 C 18.964844 0 22.351562 -1.660156 24.777344 -4.34375 C 27.269531 -7.023438 28.800781 -10.730469 28.800781 -14.816406 C 28.800781 -18.773438 27.460938 -21.96875 24.777344 -24.332031 C 22.289062 -26.628906 18.964844 -27.78125 15.199219 -27.78125 C 11.367188 -27.78125 8.046875 -26.628906 5.554688 -24.332031 C 5.171875 -23.949219 4.726562 -23.5 4.277344 -22.988281 C 4.34375 -23.5 4.46875 -24.011719 4.597656 -24.777344 C 4.851562 -26.628906 5.492188 -28.480469 6.578125 -30.332031 C 7.664062 -32.121094 9.003906 -33.910156 10.601562 -35.378906 C 11.941406 -36.65625 13.667969 -37.933594 15.902344 -39.019531 C 18.074219 -40.039062 20.691406 -40.871094 23.882812 -40.871094 L 23.882812 -42.976562 C 20.371094 -42.976562 17.433594 -42.148438 15.007812 -41.0625 C 12.515625 -39.847656 10.601562 -38.316406 9.132812 -36.976562 C 7.40625 -35.316406 5.875 -33.335938 4.726562 -31.292969 C 3.640625 -29.25 2.875 -27.078125 2.617188 -25.035156 C 2.234375 -22.863281 2.042969 -21.710938 1.980469 -20.820312 C 1.851562 -19.925781 1.789062 -19.351562 1.789062 -18.457031 L 1.851562 -17.050781 C 1.722656 -16.285156 1.660156 -15.582031 1.660156 -14.816406 C 1.660156 -10.730469 3.191406 -7.023438 5.683594 -4.34375 Z M 23.179688 -23.054688 C 25.289062 -21.265625 26.757812 -18.519531 26.757812 -14.75 C 26.757812 -11.238281 25.480469 -8.046875 23.4375 -5.746094 C 21.328125 -3.382812 18.519531 -1.980469 15.328125 -1.980469 C 12.070312 -1.980469 9.261719 -3.382812 7.214844 -5.746094 C 5.109375 -8.046875 3.832031 -11.238281 3.832031 -14.75 C 3.832031 -18.519531 5.238281 -21.265625 7.40625 -23.054688 C 9.578125 -24.90625 12.453125 -25.671875 15.328125 -25.671875 C 18.199219 -25.671875 21.011719 -24.90625 23.179688 -23.054688 Z M 23.179688 -23.054688 "/></g></g></g><g fill="#ffffff" fill-opacity="1"><g transform="translate(427.668126, 418.96935)"><g><path d="M 26.183594 -25.417969 C 27.652344 -27.203125 28.480469 -29.3125 28.480469 -31.675781 C 28.480469 -34.804688 27.011719 -37.613281 24.585938 -39.722656 C 22.097656 -41.765625 18.710938 -43.042969 15.007812 -43.042969 C 11.304688 -43.042969 7.984375 -41.765625 5.492188 -39.722656 C 3.066406 -37.613281 1.53125 -34.804688 1.53125 -31.675781 C 1.53125 -29.3125 2.425781 -27.203125 3.894531 -25.417969 C 5.300781 -23.566406 7.40625 -22.160156 9.835938 -21.265625 C 7.40625 -20.433594 5.300781 -19.03125 3.894531 -17.304688 C 2.425781 -15.519531 1.53125 -13.347656 1.53125 -11.046875 C 1.53125 -7.984375 3.066406 -5.171875 5.492188 -3.191406 C 7.984375 -1.214844 11.304688 0.0625 15.007812 0.0625 C 18.710938 0.0625 22.097656 -1.214844 24.585938 -3.191406 C 27.011719 -5.171875 28.480469 -7.984375 28.480469 -11.046875 C 28.480469 -13.347656 27.652344 -15.519531 26.183594 -17.304688 C 24.714844 -19.03125 22.671875 -20.433594 20.242188 -21.265625 C 22.671875 -22.160156 24.714844 -23.566406 26.183594 -25.417969 Z M 6.832031 -38.378906 C 8.941406 -40.039062 11.8125 -41.125 15.007812 -41.125 C 18.265625 -41.125 21.074219 -40.039062 23.179688 -38.378906 C 25.289062 -36.65625 26.566406 -34.292969 26.566406 -31.675781 C 26.566406 -29.121094 25.289062 -26.757812 23.179688 -25.035156 C 21.074219 -23.308594 18.265625 -22.289062 15.007812 -22.289062 C 11.8125 -22.289062 8.941406 -23.308594 6.832031 -25.035156 C 4.726562 -26.757812 3.382812 -29.121094 3.382812 -31.675781 C 3.382812 -34.292969 4.726562 -36.65625 6.832031 -38.378906 Z M 6.832031 -4.535156 C 4.726562 -6.257812 3.382812 -8.492188 3.382812 -11.113281 C 3.382812 -13.667969 4.726562 -15.964844 6.832031 -17.625 C 8.941406 -19.351562 11.8125 -20.371094 15.007812 -20.371094 C 18.265625 -20.371094 21.074219 -19.351562 23.179688 -17.625 C 25.289062 -15.964844 26.628906 -13.667969 26.628906 -11.113281 C 26.628906 -8.492188 25.289062 -6.257812 23.179688 -4.535156 C 21.074219 -2.875 18.265625 -1.851562 15.007812 -1.851562 C 11.8125 -1.851562 8.941406 -2.875 6.832031 -4.535156 Z M 6.832031 -4.535156 "/></g></g></g><g fill="#ffffff" fill-opacity="1"><g transform="translate(462.025221, 418.96935)"><g><path d="M 1.53125 -31.675781 L 3.449219 -31.675781 C 3.449219 -32.570312 3.578125 -33.335938 3.832031 -34.101562 C 4.46875 -36.144531 5.9375 -37.871094 7.984375 -39.082031 C 9.898438 -40.296875 12.390625 -41.0625 15.007812 -41.0625 C 18.199219 -41.0625 21.011719 -39.976562 23.117188 -38.316406 C 25.226562 -36.59375 26.566406 -34.230469 26.566406 -31.609375 C 26.566406 -29.058594 25.226562 -26.695312 23.117188 -24.96875 C 21.011719 -23.246094 18.199219 -22.222656 15.007812 -22.222656 L 14.050781 -22.222656 L 14.050781 -20.308594 L 15.007812 -20.308594 C 18.199219 -20.308594 21.011719 -19.285156 23.117188 -17.5625 C 25.226562 -15.902344 26.566406 -13.601562 26.566406 -11.046875 C 26.566406 -8.429688 25.226562 -6.195312 23.117188 -4.46875 C 21.011719 -2.808594 18.199219 -1.789062 15.007812 -1.789062 C 12.261719 -1.789062 9.707031 -2.554688 7.726562 -3.832031 C 5.683594 -5.171875 4.152344 -6.898438 3.578125 -9.066406 C 3.382812 -9.707031 3.320312 -10.34375 3.320312 -11.046875 L 1.40625 -11.046875 C 1.40625 -10.28125 1.53125 -9.453125 1.789062 -8.621094 C 2.492188 -6.128906 4.152344 -3.960938 6.515625 -2.425781 C 8.875 -0.832031 11.8125 0 14.878906 0 C 18.582031 0 21.96875 -1.277344 24.394531 -3.257812 C 26.820312 -5.238281 28.355469 -7.984375 28.355469 -11.113281 C 28.355469 -13.410156 27.523438 -15.582031 26.054688 -17.371094 C 24.585938 -19.09375 22.542969 -20.5 20.117188 -21.328125 C 22.542969 -22.222656 24.585938 -23.628906 26.054688 -25.480469 C 27.523438 -27.269531 28.355469 -29.375 28.355469 -31.738281 C 28.355469 -34.867188 26.820312 -37.679688 24.394531 -39.785156 C 21.96875 -41.828125 18.582031 -43.042969 14.878906 -43.042969 C 11.878906 -43.042969 9.066406 -42.210938 6.707031 -40.808594 C 4.40625 -39.339844 2.683594 -37.292969 1.789062 -34.867188 C 1.46875 -33.847656 1.339844 -32.886719 1.339844 -31.800781 Z M 1.53125 -31.675781 "/></g></g></g><g fill="#ffffff" fill-opacity="1"><g transform="translate(496.382317, 418.96935)"><g><path d="M 26.183594 -25.417969 C 27.652344 -27.203125 28.480469 -29.3125 28.480469 -31.675781 C 28.480469 -34.804688 27.011719 -37.613281 24.585938 -39.722656 C 22.097656 -41.765625 18.710938 -43.042969 15.007812 -43.042969 C 11.304688 -43.042969 7.984375 -41.765625 5.492188 -39.722656 C 3.066406 -37.613281 1.53125 -34.804688 1.53125 -31.675781 C 1.53125 -29.3125 2.425781 -27.203125 3.894531 -25.417969 C 5.300781 -23.566406 7.40625 -22.160156 9.835938 -21.265625 C 7.40625 -20.433594 5.300781 -19.03125 3.894531 -17.304688 C 2.425781 -15.519531 1.53125 -13.347656 1.53125 -11.046875 C 1.53125 -7.984375 3.066406 -5.171875 5.492188 -3.191406 C 7.984375 -1.214844 11.304688 0.0625 15.007812 0.0625 C 18.710938 0.0625 22.097656 -1.214844 24.585938 -3.191406 C 27.011719 -5.171875 28.480469 -7.984375 28.480469 -11.046875 C 28.480469 -13.347656 27.652344 -15.519531 26.183594 -17.304688 C 24.714844 -19.03125 22.671875 -20.433594 20.242188 -21.265625 C 22.671875 -22.160156 24.714844 -23.566406 26.183594 -25.417969 Z M 6.832031 -38.378906 C 8.941406 -40.039062 11.8125 -41.125 15.007812 -41.125 C 18.265625 -41.125 21.074219 -40.039062 23.179688 -38.378906 C 25.289062 -36.65625 26.566406 -34.292969 26.566406 -31.675781 C 26.566406 -29.121094 25.289062 -26.757812 23.179688 -25.035156 C 21.074219 -23.308594 18.265625 -22.289062 15.007812 -22.289062 C 11.8125 -22.289062 8.941406 -23.308594 6.832031 -25.035156 C 4.726562 -26.757812 3.382812 -29.121094 3.382812 -31.675781 C 3.382812 -34.292969 4.726562 -36.65625 6.832031 -38.378906 Z M 6.832031 -4.535156 C 4.726562 -6.257812 3.382812 -8.492188 3.382812 -11.113281 C 3.382812 -13.667969 4.726562 -15.964844 6.832031 -17.625 C 8.941406 -19.351562 11.8125 -20.371094 15.007812 -20.371094 C 18.265625 -20.371094 21.074219 -19.351562 23.179688 -17.625 C 25.289062 -15.964844 26.628906 -13.667969 26.628906 -11.113281 C 26.628906 -8.492188 25.289062 -6.257812 23.179688 -4.535156 C 21.074219 -2.875 18.265625 -1.851562 15.007812 -1.851562 C 11.8125 -1.851562 8.941406 -2.875 6.832031 -4.535156 Z M 6.832031 -4.535156 "/></g></g></g><g fill="#ffffff" fill-opacity="1"><g transform="translate(33.355388, 419.355131)"><g><path d="M 13.28125 -20.882812 L 21.585938 -20.882812 L 18.710938 -12.324219 L 10.410156 -12.324219 Z M 3.894531 0.445312 L 6.128906 0.445312 L 9.644531 -10.089844 L 17.945312 -10.089844 L 14.625 -0.0625 L 16.859375 -0.0625 L 20.179688 -10.089844 L 28.863281 -10.089844 L 28.863281 -12.324219 L 20.945312 -12.324219 L 23.820312 -20.882812 L 30.972656 -20.882812 L 30.972656 -23.117188 L 24.585938 -23.117188 L 28.097656 -33.589844 L 25.863281 -33.589844 L 22.351562 -23.117188 L 13.984375 -23.117188 L 17.304688 -33.078125 L 15.070312 -33.078125 L 11.75 -23.117188 L 3.640625 -23.117188 L 3.640625 -20.882812 L 10.984375 -20.882812 L 8.109375 -12.324219 L 1.53125 -12.324219 L 1.53125 -10.089844 L 7.40625 -10.089844 Z M 3.894531 0.445312 "/></g></g></g><g fill="#ffffff" fill-opacity="1"><g transform="translate(70.139194, 419.355131)"><g><path d="M 5.554688 -4.34375 C 7.984375 -1.660156 11.429688 0 15.199219 0 C 18.964844 0 22.351562 -1.660156 24.777344 -4.34375 C 27.269531 -7.023438 28.800781 -10.730469 28.800781 -14.816406 C 28.800781 -18.773438 27.460938 -21.96875 24.777344 -24.332031 C 22.289062 -26.628906 18.964844 -27.78125 15.199219 -27.78125 C 11.367188 -27.78125 8.046875 -26.628906 5.554688 -24.332031 C 5.171875 -23.949219 4.726562 -23.5 4.277344 -22.988281 C 4.34375 -23.5 4.46875 -24.011719 4.597656 -24.777344 C 4.851562 -26.628906 5.492188 -28.480469 6.578125 -30.332031 C 7.664062 -32.121094 9.003906 -33.910156 10.601562 -35.378906 C 11.941406 -36.65625 13.667969 -37.933594 15.902344 -39.019531 C 18.074219 -40.039062 20.691406 -40.871094 23.882812 -40.871094 L 23.882812 -42.976562 C 20.371094 -42.976562 17.433594 -42.148438 15.007812 -41.0625 C 12.515625 -39.847656 10.601562 -38.316406 9.132812 -36.976562 C 7.40625 -35.316406 5.875 -33.335938 4.726562 -31.292969 C 3.640625 -29.25 2.875 -27.078125 2.617188 -25.035156 C 2.234375 -22.863281 2.042969 -21.710938 1.980469 -20.820312 C 1.851562 -19.925781 1.789062 -19.351562 1.789062 -18.457031 L 1.851562 -17.050781 C 1.722656 -16.285156 1.660156 -15.582031 1.660156 -14.816406 C 1.660156 -10.730469 3.191406 -7.023438 5.683594 -4.34375 Z M 23.179688 -23.054688 C 25.289062 -21.265625 26.757812 -18.519531 26.757812 -14.75 C 26.757812 -11.238281 25.480469 -8.046875 23.4375 -5.746094 C 21.328125 -3.382812 18.519531 -1.980469 15.328125 -1.980469 C 12.070312 -1.980469 9.261719 -3.382812 7.214844 -5.746094 C 5.109375 -8.046875 3.832031 -11.238281 3.832031 -14.75 C 3.832031 -18.519531 5.238281 -21.265625 7.40625 -23.054688 C 9.578125 -24.90625 12.453125 -25.671875 15.328125 -25.671875 C 18.199219 -25.671875 21.011719 -24.90625 23.179688 -23.054688 Z M 23.179688 -23.054688 "/></g></g></g><g fill="#ffffff" fill-opacity="1"><g transform="translate(104.751729, 419.355131)"><g><path d="M 3.832031 -2.234375 L 3.832031 -5.9375 C 3.832031 -7.917969 3.832031 -10.472656 3.832031 -13.410156 L 3.832031 -22.988281 L 16.605469 -22.988281 L 16.605469 -25.226562 L 3.832031 -25.226562 C 3.832031 -29.886719 3.894531 -34.421875 3.894531 -37.933594 L 3.894531 -44.320312 L 7.472656 -44.320312 C 9.261719 -44.253906 11.367188 -44.253906 13.476562 -44.253906 L 21.585938 -44.253906 L 21.585938 -46.554688 L 2.746094 -46.554688 C 2.105469 -46.554688 1.597656 -46.042969 1.597656 -45.40625 L 1.53125 -1.148438 C 1.53125 -0.894531 1.660156 -0.574219 1.914062 -0.320312 C 2.105469 -0.128906 2.425781 0 2.746094 0 L 21.96875 0 L 21.96875 -2.234375 Z M 3.832031 -2.234375 "/></g></g></g><g fill="#ffffff" fill-opacity="1"><g transform="translate(132.467306, 419.355131)"><g><path d="M 1.53125 -34.933594 L 3.511719 -34.039062 C 4.46875 -36.273438 5.9375 -38.0625 7.792969 -39.339844 C 9.578125 -40.617188 11.6875 -41.316406 13.921875 -41.316406 C 17.945312 -41.316406 20.945312 -40.167969 22.988281 -37.742188 C 25.226562 -35.25 26.054688 -31.609375 25.417969 -27.585938 C 25.035156 -24.648438 23.4375 -21.519531 21.265625 -18.648438 C 19.03125 -15.644531 16.285156 -12.835938 13.601562 -10.410156 C 10.855469 -7.917969 8.238281 -5.875 6.257812 -4.34375 C 4.277344 -2.875 3 -2.042969 2.9375 -2.042969 C 2.617188 -1.789062 2.425781 -1.339844 2.554688 -0.832031 C 2.683594 -0.382812 3.066406 -0.0625 3.578125 -0.0625 L 28.035156 -0.0625 L 28.035156 -2.234375 L 6.960938 -2.234375 C 9.066406 -3.703125 11.941406 -6.003906 15.070312 -8.875 C 22.671875 -15.773438 26.757812 -21.839844 27.585938 -27.332031 C 27.714844 -28.226562 27.78125 -29.058594 27.78125 -29.949219 C 27.78125 -33.589844 26.695312 -36.785156 24.648438 -39.148438 C 22.160156 -41.957031 18.582031 -43.425781 13.984375 -43.425781 C 11.367188 -43.425781 8.875 -42.59375 6.707031 -41.125 C 4.535156 -39.65625 2.808594 -37.484375 1.660156 -34.933594 Z M 1.53125 -34.933594 "/></g></g></g><g fill="#ffffff" fill-opacity="1"><g transform="translate(166.249645, 419.355131)"><g><path d="M 3.832031 -2.234375 L 3.832031 -5.9375 C 3.832031 -7.917969 3.832031 -10.472656 3.832031 -13.410156 L 3.832031 -22.988281 L 16.605469 -22.988281 L 16.605469 -25.226562 L 3.832031 -25.226562 C 3.832031 -29.886719 3.894531 -34.421875 3.894531 -37.933594 L 3.894531 -44.320312 L 7.472656 -44.320312 C 9.261719 -44.253906 11.367188 -44.253906 13.476562 -44.253906 L 21.585938 -44.253906 L 21.585938 -46.554688 L 2.746094 -46.554688 C 2.105469 -46.554688 1.597656 -46.042969 1.597656 -45.40625 L 1.53125 -1.148438 C 1.53125 -0.894531 1.660156 -0.574219 1.914062 -0.320312 C 2.105469 -0.128906 2.425781 0 2.746094 0 L 21.96875 0 L 21.96875 -2.234375 Z M 3.832031 -2.234375 "/></g></g></g><g fill="#ffffff" fill-opacity="1"><g transform="translate(193.965211, 419.355131)"><g><path d="M 1.53125 -42.53125 L 1.53125 0 L 3.769531 0 L 3.769531 -42.53125 Z M 1.53125 -42.53125 "/></g></g></g><g fill="#ffffff" fill-opacity="1"><g transform="translate(203.544337, 419.355131)"><g><path d="M 1.53125 -31.675781 L 3.449219 -31.675781 C 3.449219 -32.570312 3.578125 -33.335938 3.832031 -34.101562 C 4.46875 -36.144531 5.9375 -37.871094 7.984375 -39.082031 C 9.898438 -40.296875 12.390625 -41.0625 15.007812 -41.0625 C 18.199219 -41.0625 21.011719 -39.976562 23.117188 -38.316406 C 25.226562 -36.59375 26.566406 -34.230469 26.566406 -31.609375 C 26.566406 -29.058594 25.226562 -26.695312 23.117188 -24.96875 C 21.011719 -23.246094 18.199219 -22.222656 15.007812 -22.222656 L 14.050781 -22.222656 L 14.050781 -20.308594 L 15.007812 -20.308594 C 18.199219 -20.308594 21.011719 -19.285156 23.117188 -17.5625 C 25.226562 -15.902344 26.566406 -13.601562 26.566406 -11.046875 C 26.566406 -8.429688 25.226562 -6.195312 23.117188 -4.46875 C 21.011719 -2.808594 18.199219 -1.789062 15.007812 -1.789062 C 12.261719 -1.789062 9.707031 -2.554688 7.726562 -3.832031 C 5.683594 -5.171875 4.152344 -6.898438 3.578125 -9.066406 C 3.382812 -9.707031 3.320312 -10.34375 3.320312 -11.046875 L 1.40625 -11.046875 C 1.40625 -10.28125 1.53125 -9.453125 1.789062 -8.621094 C 2.492188 -6.128906 4.152344 -3.960938 6.515625 -2.425781 C 8.875 -0.832031 11.8125 0 14.878906 0 C 18.582031 0 21.96875 -1.277344 24.394531 -3.257812 C 26.820312 -5.238281 28.355469 -7.984375 28.355469 -11.113281 C 28.355469 -13.410156 27.523438 -15.582031 26.054688 -17.371094 C 24.585938 -19.09375 22.542969 -20.5 20.117188 -21.328125 C 22.542969 -22.222656 24.585938 -23.628906 26.054688 -25.480469 C 27.523438 -27.269531 28.355469 -29.375 28.355469 -31.738281 C 28.355469 -34.867188 26.820312 -37.679688 24.394531 -39.785156 C 21.96875 -41.828125 18.582031 -43.042969 14.878906 -43.042969 C 11.878906 -43.042969 9.066406 -42.210938 6.707031 -40.808594 C 4.40625 -39.339844 2.683594 -37.292969 1.789062 -34.867188 C 1.46875 -33.847656 1.339844 -32.886719 1.339844 -31.800781 Z M 1.53125 -31.675781 "/></g></g></g><g fill="#000000" fill-opacity="1"><g transform="translate(573.337535, 418.96935)"><g><path d="M 13.28125 -20.882812 L 21.585938 -20.882812 L 18.710938 -12.324219 L 10.410156 -12.324219 Z M 3.894531 0.445312 L 6.128906 0.445312 L 9.644531 -10.089844 L 17.945312 -10.089844 L 14.625 -0.0625 L 16.859375 -0.0625 L 20.179688 -10.089844 L 28.863281 -10.089844 L 28.863281 -12.324219 L 20.945312 -12.324219 L 23.820312 -20.882812 L 30.972656 -20.882812 L 30.972656 -23.117188 L 24.585938 -23.117188 L 28.097656 -33.589844 L 25.863281 -33.589844 L 22.351562 -23.117188 L 13.984375 -23.117188 L 17.304688 -33.078125 L 15.070312 -33.078125 L 11.75 -23.117188 L 3.640625 -23.117188 L 3.640625 -20.882812 L 10.984375 -20.882812 L 8.109375 -12.324219 L 1.53125 -12.324219 L 1.53125 -10.089844 L 7.40625 -10.089844 Z M 3.894531 0.445312 "/></g></g></g><g fill="#000000" fill-opacity="1"><g transform="translate(610.121341, 418.96935)"><g><path d="M 21.585938 -44.191406 L 21.585938 -46.492188 L 2.746094 -46.492188 C 2.105469 -46.492188 1.597656 -45.980469 1.597656 -45.339844 L 1.53125 0 L 3.832031 0 L 3.832031 -7.152344 C 3.832031 -11.496094 3.832031 -17.113281 3.832031 -22.796875 L 16.605469 -22.796875 L 16.605469 -25.035156 L 3.894531 -25.035156 L 3.894531 -44.191406 L 7.472656 -44.191406 C 9.261719 -44.191406 11.367188 -44.191406 13.476562 -44.191406 Z M 21.585938 -44.191406 "/></g></g></g><g fill="#000000" fill-opacity="1"><g transform="translate(637.581468, 418.96935)"><g><path d="M 21.585938 -44.191406 L 21.585938 -46.492188 L 2.746094 -46.492188 C 2.105469 -46.492188 1.597656 -45.980469 1.597656 -45.339844 L 1.53125 0 L 3.832031 0 L 3.832031 -7.152344 C 3.832031 -11.496094 3.832031 -17.113281 3.832031 -22.796875 L 16.605469 -22.796875 L 16.605469 -25.035156 L 3.894531 -25.035156 L 3.894531 -44.191406 L 7.472656 -44.191406 C 9.261719 -44.191406 11.367188 -44.191406 13.476562 -44.191406 Z M 21.585938 -44.191406 "/></g></g></g><g fill="#000000" fill-opacity="1"><g transform="translate(665.041589, 418.96935)"><g><path d="M 30.652344 0 L 33.015625 -0.0625 L 18.648438 -45.789062 C 18.519531 -46.234375 18.074219 -46.554688 17.5625 -46.554688 L 16.988281 -46.554688 C 16.476562 -46.554688 16.027344 -46.234375 15.902344 -45.789062 L 1.53125 -0.0625 L 3.894531 0 C 4.277344 -1.339844 4.726562 -2.683594 5.238281 -4.152344 C 6.066406 -6.769531 7.152344 -10.28125 8.367188 -14.242188 L 26.183594 -14.242188 C 27.394531 -10.28125 28.480469 -6.769531 29.3125 -4.152344 C 29.824219 -2.683594 30.269531 -1.339844 30.652344 0 Z M 9.132812 -16.539062 C 10.21875 -20.179688 11.429688 -24.011719 12.582031 -27.652344 C 13.667969 -31.226562 14.75 -34.613281 15.582031 -37.230469 C 16.414062 -39.914062 17.050781 -41.828125 17.304688 -42.660156 C 17.496094 -41.828125 18.136719 -39.914062 18.964844 -37.230469 C 19.796875 -34.613281 20.882812 -31.226562 21.96875 -27.652344 C 23.117188 -24.011719 24.332031 -20.179688 25.417969 -16.539062 Z M 9.132812 -16.539062 "/></g></g></g><g fill="#000000" fill-opacity="1"><g transform="translate(703.868941, 418.96935)"><g><path d="M 1.53125 -42.53125 L 1.53125 0 L 3.769531 0 L 3.769531 -42.53125 Z M 1.53125 -42.53125 "/></g></g></g><g fill="#000000" fill-opacity="1"><g transform="translate(713.448067, 418.96935)"><g><path d="M 1.53125 -28.480469 L 1.53125 -14.496094 C 1.53125 -10.472656 3.066406 -6.832031 5.492188 -4.214844 C 7.984375 -1.597656 11.304688 0 15.070312 0 C 18.839844 0 22.222656 -1.597656 24.648438 -4.214844 C 27.140625 -6.832031 28.609375 -10.472656 28.609375 -14.496094 L 28.609375 -28.480469 C 28.609375 -32.503906 27.140625 -36.082031 24.648438 -38.699219 C 22.222656 -41.316406 18.839844 -42.914062 15.070312 -42.914062 C 11.304688 -42.914062 7.984375 -41.316406 5.492188 -38.699219 C 3.066406 -36.082031 1.53125 -32.503906 1.53125 -28.480469 Z M 3.769531 -14.496094 L 3.769531 -28.480469 C 3.769531 -31.867188 5.046875 -34.933594 7.089844 -37.167969 C 9.195312 -39.339844 12.003906 -40.742188 15.136719 -40.742188 C 18.328125 -40.742188 21.136719 -39.339844 23.246094 -37.167969 C 25.289062 -34.933594 26.566406 -31.867188 26.566406 -28.480469 L 26.566406 -14.496094 C 26.566406 -11.113281 25.289062 -8.046875 23.246094 -5.8125 C 21.136719 -3.578125 18.328125 -2.234375 15.136719 -2.234375 C 12.003906 -2.234375 9.195312 -3.578125 7.089844 -5.8125 C 5.046875 -8.046875 3.769531 -11.113281 3.769531 -14.496094 Z M 3.769531 -14.496094 "/></g></g></g><g fill="#000000" fill-opacity="1"><g transform="translate(747.932884, 418.96935)"><g><path d="M 1.53125 -28.480469 L 1.53125 -14.496094 C 1.53125 -10.472656 3.066406 -6.832031 5.492188 -4.214844 C 7.984375 -1.597656 11.304688 0 15.070312 0 C 18.839844 0 22.222656 -1.597656 24.648438 -4.214844 C 27.140625 -6.832031 28.609375 -10.472656 28.609375 -14.496094 L 28.609375 -28.480469 C 28.609375 -32.503906 27.140625 -36.082031 24.648438 -38.699219 C 22.222656 -41.316406 18.839844 -42.914062 15.070312 -42.914062 C 11.304688 -42.914062 7.984375 -41.316406 5.492188 -38.699219 C 3.066406 -36.082031 1.53125 -32.503906 1.53125 -28.480469 Z M 3.769531 -14.496094 L 3.769531 -28.480469 C 3.769531 -31.867188 5.046875 -34.933594 7.089844 -37.167969 C 9.195312 -39.339844 12.003906 -40.742188 15.136719 -40.742188 C 18.328125 -40.742188 21.136719 -39.339844 23.246094 -37.167969 C 25.289062 -34.933594 26.566406 -31.867188 26.566406 -28.480469 L 26.566406 -14.496094 C 26.566406 -11.113281 25.289062 -8.046875 23.246094 -5.8125 C 21.136719 -3.578125 18.328125 -2.234375 15.136719 -2.234375 C 12.003906 -2.234375 9.195312 -3.578125 7.089844 -5.8125 C 5.046875 -8.046875 3.769531 -11.113281 3.769531 -14.496094 Z M 3.769531 -14.496094 "/></g></g></g><g fill="#000000" fill-opacity="1"><g transform="translate(296.883123, 691.440345)"><g><path d="M 13.28125 -20.882812 L 21.585938 -20.882812 L 18.710938 -12.324219 L 10.410156 -12.324219 Z M 3.894531 0.445312 L 6.128906 0.445312 L 9.644531 -10.089844 L 17.945312 -10.089844 L 14.625 -0.0625 L 16.859375 -0.0625 L 20.179688 -10.089844 L 28.863281 -10.089844 L 28.863281 -12.324219 L 20.945312 -12.324219 L 23.820312 -20.882812 L 30.972656 -20.882812 L 30.972656 -23.117188 L 24.585938 -23.117188 L 28.097656 -33.589844 L 25.863281 -33.589844 L 22.351562 -23.117188 L 13.984375 -23.117188 L 17.304688 -33.078125 L 15.070312 -33.078125 L 11.75 -23.117188 L 3.640625 -23.117188 L 3.640625 -20.882812 L 10.984375 -20.882812 L 8.109375 -12.324219 L 1.53125 -12.324219 L 1.53125 -10.089844 L 7.40625 -10.089844 Z M 3.894531 0.445312 "/></g></g></g><g fill="#000000" fill-opacity="1"><g transform="translate(333.66693, 691.440345)"><g><path d="M 21.585938 -44.191406 L 21.585938 -46.492188 L 2.746094 -46.492188 C 2.105469 -46.492188 1.597656 -45.980469 1.597656 -45.339844 L 1.53125 0 L 3.832031 0 L 3.832031 -7.152344 C 3.832031 -11.496094 3.832031 -17.113281 3.832031 -22.796875 L 16.605469 -22.796875 L 16.605469 -25.035156 L 3.894531 -25.035156 L 3.894531 -44.191406 L 7.472656 -44.191406 C 9.261719 -44.191406 11.367188 -44.191406 13.476562 -44.191406 Z M 21.585938 -44.191406 "/></g></g></g><g fill="#000000" fill-opacity="1"><g transform="translate(361.127056, 691.440345)"><g><path d="M 1.53125 -34.933594 L 3.511719 -34.039062 C 4.46875 -36.273438 5.9375 -38.0625 7.792969 -39.339844 C 9.578125 -40.617188 11.6875 -41.316406 13.921875 -41.316406 C 17.945312 -41.316406 20.945312 -40.167969 22.988281 -37.742188 C 25.226562 -35.25 26.054688 -31.609375 25.417969 -27.585938 C 25.035156 -24.648438 23.4375 -21.519531 21.265625 -18.648438 C 19.03125 -15.644531 16.285156 -12.835938 13.601562 -10.410156 C 10.855469 -7.917969 8.238281 -5.875 6.257812 -4.34375 C 4.277344 -2.875 3 -2.042969 2.9375 -2.042969 C 2.617188 -1.789062 2.425781 -1.339844 2.554688 -0.832031 C 2.683594 -0.382812 3.066406 -0.0625 3.578125 -0.0625 L 28.035156 -0.0625 L 28.035156 -2.234375 L 6.960938 -2.234375 C 9.066406 -3.703125 11.941406 -6.003906 15.070312 -8.875 C 22.671875 -15.773438 26.757812 -21.839844 27.585938 -27.332031 C 27.714844 -28.226562 27.78125 -29.058594 27.78125 -29.949219 C 27.78125 -33.589844 26.695312 -36.785156 24.648438 -39.148438 C 22.160156 -41.957031 18.582031 -43.425781 13.984375 -43.425781 C 11.367188 -43.425781 8.875 -42.59375 6.707031 -41.125 C 4.535156 -39.65625 2.808594 -37.484375 1.660156 -34.933594 Z M 1.53125 -34.933594 "/></g></g></g><g fill="#000000" fill-opacity="1"><g transform="translate(394.909395, 691.440345)"><g><path d="M 21.585938 -44.191406 L 21.585938 -46.492188 L 2.746094 -46.492188 C 2.105469 -46.492188 1.597656 -45.980469 1.597656 -45.339844 L 1.53125 0 L 3.832031 0 L 3.832031 -7.152344 C 3.832031 -11.496094 3.832031 -17.113281 3.832031 -22.796875 L 16.605469 -22.796875 L 16.605469 -25.035156 L 3.894531 -25.035156 L 3.894531 -44.191406 L 7.472656 -44.191406 C 9.261719 -44.191406 11.367188 -44.191406 13.476562 -44.191406 Z M 21.585938 -44.191406 "/></g></g></g><g fill="#000000" fill-opacity="1"><g transform="translate(422.369516, 691.440345)"><g><path d="M 1.53125 -34.933594 L 3.511719 -34.039062 C 4.46875 -36.273438 5.9375 -38.0625 7.792969 -39.339844 C 9.578125 -40.617188 11.6875 -41.316406 13.921875 -41.316406 C 17.945312 -41.316406 20.945312 -40.167969 22.988281 -37.742188 C 25.226562 -35.25 26.054688 -31.609375 25.417969 -27.585938 C 25.035156 -24.648438 23.4375 -21.519531 21.265625 -18.648438 C 19.03125 -15.644531 16.285156 -12.835938 13.601562 -10.410156 C 10.855469 -7.917969 8.238281 -5.875 6.257812 -4.34375 C 4.277344 -2.875 3 -2.042969 2.9375 -2.042969 C 2.617188 -1.789062 2.425781 -1.339844 2.554688 -0.832031 C 2.683594 -0.382812 3.066406 -0.0625 3.578125 -0.0625 L 28.035156 -0.0625 L 28.035156 -2.234375 L 6.960938 -2.234375 C 9.066406 -3.703125 11.941406 -6.003906 15.070312 -8.875 C 22.671875 -15.773438 26.757812 -21.839844 27.585938 -27.332031 C 27.714844 -28.226562 27.78125 -29.058594 27.78125 -29.949219 C 27.78125 -33.589844 26.695312 -36.785156 24.648438 -39.148438 C 22.160156 -41.957031 18.582031 -43.425781 13.984375 -43.425781 C 11.367188 -43.425781 8.875 -42.59375 6.707031 -41.125 C 4.535156 -39.65625 2.808594 -37.484375 1.660156 -34.933594 Z M 1.53125 -34.933594 "/></g></g></g><g fill="#000000" fill-opacity="1"><g transform="translate(456.151855, 691.440345)"><g><path d="M 21.585938 -44.191406 L 21.585938 -46.492188 L 2.746094 -46.492188 C 2.105469 -46.492188 1.597656 -45.980469 1.597656 -45.339844 L 1.53125 0 L 3.832031 0 L 3.832031 -7.152344 C 3.832031 -11.496094 3.832031 -17.113281 3.832031 -22.796875 L 16.605469 -22.796875 L 16.605469 -25.035156 L 3.894531 -25.035156 L 3.894531 -44.191406 L 7.472656 -44.191406 C 9.261719 -44.191406 11.367188 -44.191406 13.476562 -44.191406 Z M 21.585938 -44.191406 "/></g></g></g><g fill="#000000" fill-opacity="1"><g transform="translate(483.611976, 691.440345)"><g><path d="M 1.53125 -34.933594 L 3.511719 -34.039062 C 4.46875 -36.273438 5.9375 -38.0625 7.792969 -39.339844 C 9.578125 -40.617188 11.6875 -41.316406 13.921875 -41.316406 C 17.945312 -41.316406 20.945312 -40.167969 22.988281 -37.742188 C 25.226562 -35.25 26.054688 -31.609375 25.417969 -27.585938 C 25.035156 -24.648438 23.4375 -21.519531 21.265625 -18.648438 C 19.03125 -15.644531 16.285156 -12.835938 13.601562 -10.410156 C 10.855469 -7.917969 8.238281 -5.875 6.257812 -4.34375 C 4.277344 -2.875 3 -2.042969 2.9375 -2.042969 C 2.617188 -1.789062 2.425781 -1.339844 2.554688 -0.832031 C 2.683594 -0.382812 3.066406 -0.0625 3.578125 -0.0625 L 28.035156 -0.0625 L 28.035156 -2.234375 L 6.960938 -2.234375 C 9.066406 -3.703125 11.941406 -6.003906 15.070312 -8.875 C 22.671875 -15.773438 26.757812 -21.839844 27.585938 -27.332031 C 27.714844 -28.226562 27.78125 -29.058594 27.78125 -29.949219 C 27.78125 -33.589844 26.695312 -36.785156 24.648438 -39.148438 C 22.160156 -41.957031 18.582031 -43.425781 13.984375 -43.425781 C 11.367188 -43.425781 8.875 -42.59375 6.707031 -41.125 C 4.535156 -39.65625 2.808594 -37.484375 1.660156 -34.933594 Z M 1.53125 -34.933594 "/></g></g></g><g fill="#000000" fill-opacity="1"><g transform="translate(566.842943, 690.312777)"><g><path d="M 13.28125 -20.882812 L 21.585938 -20.882812 L 18.710938 -12.324219 L 10.410156 -12.324219 Z M 3.894531 0.445312 L 6.128906 0.445312 L 9.644531 -10.089844 L 17.945312 -10.089844 L 14.625 -0.0625 L 16.859375 -0.0625 L 20.179688 -10.089844 L 28.863281 -10.089844 L 28.863281 -12.324219 L 20.945312 -12.324219 L 23.820312 -20.882812 L 30.972656 -20.882812 L 30.972656 -23.117188 L 24.585938 -23.117188 L 28.097656 -33.589844 L 25.863281 -33.589844 L 22.351562 -23.117188 L 13.984375 -23.117188 L 17.304688 -33.078125 L 15.070312 -33.078125 L 11.75 -23.117188 L 3.640625 -23.117188 L 3.640625 -20.882812 L 10.984375 -20.882812 L 8.109375 -12.324219 L 1.53125 -12.324219 L 1.53125 -10.089844 L 7.40625 -10.089844 Z M 3.894531 0.445312 "/></g></g></g><g fill="#000000" fill-opacity="1"><g transform="translate(603.62675, 690.312777)"><g><path d="M 3.832031 -2.234375 L 3.832031 -5.9375 C 3.832031 -7.917969 3.832031 -10.472656 3.832031 -13.410156 L 3.832031 -22.988281 L 16.605469 -22.988281 L 16.605469 -25.226562 L 3.832031 -25.226562 C 3.832031 -29.886719 3.894531 -34.421875 3.894531 -37.933594 L 3.894531 -44.320312 L 7.472656 -44.320312 C 9.261719 -44.253906 11.367188 -44.253906 13.476562 -44.253906 L 21.585938 -44.253906 L 21.585938 -46.554688 L 2.746094 -46.554688 C 2.105469 -46.554688 1.597656 -46.042969 1.597656 -45.40625 L 1.53125 -1.148438 C 1.53125 -0.894531 1.660156 -0.574219 1.914062 -0.320312 C 2.105469 -0.128906 2.425781 0 2.746094 0 L 21.96875 0 L 21.96875 -2.234375 Z M 3.832031 -2.234375 "/></g></g></g><g fill="#000000" fill-opacity="1"><g transform="translate(631.342322, 690.312777)"><g><path d="M 3.832031 -2.234375 L 3.832031 -5.9375 C 3.832031 -7.917969 3.832031 -10.472656 3.832031 -13.410156 L 3.832031 -22.988281 L 16.605469 -22.988281 L 16.605469 -25.226562 L 3.832031 -25.226562 C 3.832031 -29.886719 3.894531 -34.421875 3.894531 -37.933594 L 3.894531 -44.320312 L 7.472656 -44.320312 C 9.261719 -44.253906 11.367188 -44.253906 13.476562 -44.253906 L 21.585938 -44.253906 L 21.585938 -46.554688 L 2.746094 -46.554688 C 2.105469 -46.554688 1.597656 -46.042969 1.597656 -45.40625 L 1.53125 -1.148438 C 1.53125 -0.894531 1.660156 -0.574219 1.914062 -0.320312 C 2.105469 -0.128906 2.425781 0 2.746094 0 L 21.96875 0 L 21.96875 -2.234375 Z M 3.832031 -2.234375 "/></g></g></g><g fill="#000000" fill-opacity="1"><g transform="translate(659.057888, 690.312777)"><g><path d="M 3.832031 -2.234375 L 3.832031 -5.9375 C 3.832031 -7.917969 3.832031 -10.472656 3.832031 -13.410156 L 3.832031 -22.988281 L 16.605469 -22.988281 L 16.605469 -25.226562 L 3.832031 -25.226562 C 3.832031 -29.886719 3.894531 -34.421875 3.894531 -37.933594 L 3.894531 -44.320312 L 7.472656 -44.320312 C 9.261719 -44.253906 11.367188 -44.253906 13.476562 -44.253906 L 21.585938 -44.253906 L 21.585938 -46.554688 L 2.746094 -46.554688 C 2.105469 -46.554688 1.597656 -46.042969 1.597656 -45.40625 L 1.53125 -1.148438 C 1.53125 -0.894531 1.660156 -0.574219 1.914062 -0.320312 C 2.105469 -0.128906 2.425781 0 2.746094 0 L 21.96875 0 L 21.96875 -2.234375 Z M 3.832031 -2.234375 "/></g></g></g><g fill="#000000" fill-opacity="1"><g transform="translate(686.773454, 690.312777)"><g><path d="M 1.53125 -41.957031 L 1.53125 -39.976562 L 24.714844 -39.976562 C 24.457031 -39.53125 23.757812 -38.125 22.605469 -36.015625 C 21.519531 -33.972656 20.117188 -31.355469 18.582031 -28.417969 C 16.988281 -25.417969 15.328125 -22.160156 13.601562 -18.964844 C 10.664062 -13.28125 7.28125 -7.023438 3.578125 0 L 5.300781 0.894531 L 27.078125 -40.550781 C 27.269531 -40.871094 27.203125 -41.253906 27.011719 -41.507812 C 26.820312 -41.828125 26.628906 -41.957031 26.246094 -41.957031 Z M 1.53125 -41.957031 "/></g></g></g><g fill="#000000" fill-opacity="1"><g transform="translate(719.917191, 690.312777)"><g><path d="M 14.367188 0 C 18.902344 0 23.054688 -2.363281 26.183594 -6.898438 C 29.25 -11.367188 30.910156 -16.988281 30.910156 -23.246094 C 30.910156 -29.441406 29.25 -35.058594 26.183594 -39.53125 C 23.054688 -44.0625 18.902344 -46.554688 14.367188 -46.554688 L 2.746094 -46.554688 C 2.171875 -46.554688 1.660156 -46.042969 1.660156 -45.40625 L 1.53125 -1.148438 C 1.53125 -0.832031 1.660156 -0.574219 1.914062 -0.320312 C 2.105469 -0.0625 2.425781 0 2.746094 0 Z M 5.9375 -44.253906 C 6.769531 -44.253906 7.726562 -44.253906 8.558594 -44.253906 L 14.433594 -44.253906 C 18.390625 -44.253906 21.96875 -41.957031 24.523438 -38.125 C 27.140625 -34.292969 28.738281 -29.121094 28.738281 -23.246094 C 28.738281 -17.433594 27.140625 -12.199219 24.523438 -8.429688 C 21.96875 -4.597656 18.390625 -2.234375 14.433594 -2.234375 L 3.894531 -2.234375 L 3.894531 -9.386719 C 3.894531 -13.28125 3.960938 -18.328125 3.960938 -23.308594 C 3.960938 -28.355469 3.960938 -33.269531 3.960938 -37.230469 L 3.960938 -44.320312 L 5.9375 -44.320312 Z M 5.9375 -44.253906 "/></g></g></g><g fill="#000000" fill-opacity="1"><g transform="translate(756.637137, 690.312777)"><g><path d="M 1.53125 -31.675781 L 3.449219 -31.675781 C 3.449219 -32.570312 3.578125 -33.335938 3.832031 -34.101562 C 4.46875 -36.144531 5.9375 -37.871094 7.984375 -39.082031 C 9.898438 -40.296875 12.390625 -41.0625 15.007812 -41.0625 C 18.199219 -41.0625 21.011719 -39.976562 23.117188 -38.316406 C 25.226562 -36.59375 26.566406 -34.230469 26.566406 -31.609375 C 26.566406 -29.058594 25.226562 -26.695312 23.117188 -24.96875 C 21.011719 -23.246094 18.199219 -22.222656 15.007812 -22.222656 L 14.050781 -22.222656 L 14.050781 -20.308594 L 15.007812 -20.308594 C 18.199219 -20.308594 21.011719 -19.285156 23.117188 -17.5625 C 25.226562 -15.902344 26.566406 -13.601562 26.566406 -11.046875 C 26.566406 -8.429688 25.226562 -6.195312 23.117188 -4.46875 C 21.011719 -2.808594 18.199219 -1.789062 15.007812 -1.789062 C 12.261719 -1.789062 9.707031 -2.554688 7.726562 -3.832031 C 5.683594 -5.171875 4.152344 -6.898438 3.578125 -9.066406 C 3.382812 -9.707031 3.320312 -10.34375 3.320312 -11.046875 L 1.40625 -11.046875 C 1.40625 -10.28125 1.53125 -9.453125 1.789062 -8.621094 C 2.492188 -6.128906 4.152344 -3.960938 6.515625 -2.425781 C 8.875 -0.832031 11.8125 0 14.878906 0 C 18.582031 0 21.96875 -1.277344 24.394531 -3.257812 C 26.820312 -5.238281 28.355469 -7.984375 28.355469 -11.113281 C 28.355469 -13.410156 27.523438 -15.582031 26.054688 -17.371094 C 24.585938 -19.09375 22.542969 -20.5 20.117188 -21.328125 C 22.542969 -22.222656 24.585938 -23.628906 26.054688 -25.480469 C 27.523438 -27.269531 28.355469 -29.375 28.355469 -31.738281 C 28.355469 -34.867188 26.820312 -37.679688 24.394531 -39.785156 C 21.96875 -41.828125 18.582031 -43.042969 14.878906 -43.042969 C 11.878906 -43.042969 9.066406 -42.210938 6.707031 -40.808594 C 4.40625 -39.339844 2.683594 -37.292969 1.789062 -34.867188 C 1.46875 -33.847656 1.339844 -32.886719 1.339844 -31.800781 Z M 1.53125 -31.675781 "/></g></g></g><g fill="#ffffff" fill-opacity="1"><g transform="translate(88.977157, 690.312777)"><g><path d="M 13.28125 -20.882812 L 21.585938 -20.882812 L 18.710938 -12.324219 L 10.410156 -12.324219 Z M 3.894531 0.445312 L 6.128906 0.445312 L 9.644531 -10.089844 L 17.945312 -10.089844 L 14.625 -0.0625 L 16.859375 -0.0625 L 20.179688 -10.089844 L 28.863281 -10.089844 L 28.863281 -12.324219 L 20.945312 -12.324219 L 23.820312 -20.882812 L 30.972656 -20.882812 L 30.972656 -23.117188 L 24.585938 -23.117188 L 28.097656 -33.589844 L 25.863281 -33.589844 L 22.351562 -23.117188 L 13.984375 -23.117188 L 17.304688 -33.078125 L 15.070312 -33.078125 L 11.75 -23.117188 L 3.640625 -23.117188 L 3.640625 -20.882812 L 10.984375 -20.882812 L 8.109375 -12.324219 L 1.53125 -12.324219 L 1.53125 -10.089844 L 7.40625 -10.089844 Z M 3.894531 0.445312 "/></g></g></g><g fill="#ffffff" fill-opacity="1"><g transform="translate(125.760964, 690.312777)"><g><path d="M 1.53125 -42.53125 L 1.53125 0 L 3.769531 0 L 3.769531 -42.53125 Z M 1.53125 -42.53125 "/></g></g></g><g fill="#ffffff" fill-opacity="1"><g transform="translate(135.340085, 690.312777)"><g><path d="M 1.53125 -42.53125 L 1.53125 0 L 3.769531 0 L 3.769531 -42.53125 Z M 1.53125 -42.53125 "/></g></g></g><g fill="#ffffff" fill-opacity="1"><g transform="translate(144.919205, 690.312777)"><g><path d="M 1.53125 -42.53125 L 1.53125 0 L 3.769531 0 L 3.769531 -42.53125 Z M 1.53125 -42.53125 "/></g></g></g><g fill="#ffffff" fill-opacity="1"><g transform="translate(154.498326, 690.312777)"><g><path d="M 1.53125 -42.53125 L 1.53125 0 L 3.769531 0 L 3.769531 -42.53125 Z M 1.53125 -42.53125 "/></g></g></g><g fill="#ffffff" fill-opacity="1"><g transform="translate(164.077446, 690.312777)"><g><path d="M 1.53125 -42.53125 L 1.53125 0 L 3.769531 0 L 3.769531 -42.53125 Z M 1.53125 -42.53125 "/></g></g></g><g fill="#ffffff" fill-opacity="1"><g transform="translate(173.656567, 690.312777)"><g><path d="M 1.53125 -42.53125 L 1.53125 0 L 3.769531 0 L 3.769531 -42.53125 Z M 1.53125 -42.53125 "/></g></g></g></svg>